<?xml version="1.0" encoding="iso-8859-1"?>
<!-- Generator: Adobe Illustrator 21.0.2, SVG Export Plug-In . SVG Version: 6.00 Build 0)  -->
<svg version="1.1" id="Layer_1" xmlns="http://www.w3.org/2000/svg" xmlns:xlink="http://www.w3.org/1999/xlink" x="0px" y="0px"
	 viewBox="0 0 100.75 100.75" style="enable-background:new 0 0 100.75 100.75;" xml:space="preserve">
<path d="M81.182,20.794c-0.024-0.024-0.051-0.048-0.077-0.071l-5.798-5.037v-4.352c0-0.829-0.672-1.5-1.5-1.5s-1.5,0.671-1.5,1.5
	V21.69c0,0.829,0.672,1.5,1.5,1.5s1.5-0.671,1.5-1.5v-2.031l3.79,3.293c4.141,4.171,4.916,10.591,1.885,15.625l-7.783,12.815
	l-0.355-0.57c-0.274-0.44-0.756-0.707-1.273-0.707c-0.004,0-0.008,0-0.012,0c-0.521,0.004-1.004,0.279-1.273,0.727
	c-1.082,1.797-3.614,3.374-5.42,3.374c-1.898,0-4.767-1.671-5.791-3.373c-0.269-0.448-0.752-0.723-1.274-0.727
	c-0.51-0.021-1.009,0.264-1.285,0.708l-0.253,0.408l-7.517-12.645c-3.04-5.053-2.248-11.497,1.869-15.617l3.569-3.225v2.271
	c0,0.829,0.672,1.5,1.5,1.5s1.5-0.671,1.5-1.5V11.657c0-0.829-0.672-1.5-1.5-1.5s-1.5,0.671-1.5,1.5v4.042l-5.636,5.095
	c-5.149,5.149-6.125,13.101-2.377,19.331L54.479,54.1l-0.752,1.21c-0.297,0.479-0.301,1.083-0.011,1.566
	c1.905,3.162,5.927,5.719,9.651,6.287v7.038c0,0.067,0.005,0.133,0.014,0.198c-0.124,11.475-8.765,20.768-19.368,20.768
	c-10.68,0-19.368-9.429-19.368-21.019c0-0.066-0.004-0.132-0.013-0.196V40.524c3.207-0.786,5.597-3.678,5.597-7.125
	c0-4.049-3.292-7.343-7.339-7.343c-4.051,0-7.347,3.294-7.347,7.343c0,3.619,2.636,6.628,6.089,7.227v29.791
	c0,0.078,0.006,0.155,0.018,0.229c0.248,13.015,10.185,23.52,22.363,23.52c12.334,0,22.369-10.775,22.369-24.019
	c0-0.071-0.005-0.14-0.015-0.208v-6.778c3.59-0.56,7.318-3.031,9.282-6.286c0.292-0.483,0.287-1.089-0.011-1.568l-0.662-1.063
	l8.573-14.117C87.304,33.892,86.33,25.941,81.182,20.794z M18.542,33.399c0-2.395,1.95-4.343,4.347-4.343
	c2.393,0,4.339,1.948,4.339,4.343s-1.946,4.343-4.339,4.343C20.492,37.742,18.542,35.794,18.542,33.399z M64.869,60.283
	c-0.001,0-0.001,0-0.002,0c-0.001,0-0.002,0-0.003,0c-2.752-0.001-6.241-1.869-8.072-4.221l1.18-1.897
	c1.882,1.768,4.641,3.05,6.895,3.05c2.366,0,4.84-1.356,6.541-3.026l1.17,1.88C70.753,58.483,67.53,60.281,64.869,60.283z"/>
</svg>
